:SAMPLES-PER-SECOND 30
:FRAME-RANGE 1-668
:FULLY-SPECIFIED
:DEGREES
105
root  42.1934 39.8925 8.93138 -175.54 -41.3184 175.448
RightUpLeg  -6.72578 -10.2654 -11.3329
RightLeg  9.6372 -4.13634 -1.46863
RightFoot  -3.60549 -0.683986 9.72971
RightToes  -1.33073e-015 0 -3.6325e-017
Spine  7.2755 5.03479 6.82406
Spine1  4.52691 2.29719 14.5417
HEad  -11.9738 54.1467 -27.6341
LeftShoulder1  0.353789 1.21679 -7.91634
LeftArm  8.32551 40.1728 -14.8908
LeftForeArm  -0.201708 -73.5513 -45.9097
LeftHand  -2.11685 19.0725 -16.2398
RightShoulder  5.2874 10.0548 33.0869
RightArm  -37.9701 13.3236 -9.49442
RightForeArm  25.0378 13.6298 6.06341
RightHand  -0.680257 1.99205 -10.8637
LeftUpLeg  -7.36204 5.91911 1.15304
LeftLeg  8.41929 -1.77867 -1.2929
LeftFoot  -2.5489 0.479478 -6.03532
LeftToes  -2.73175e-012 1.00346e-010 -4.28452e-011
106
root  42.1491 39.8753 9.04959 -175.17 -41.6338 174.688
RightUpLeg  -6.78838 -10.8028 -12.1225
RightLeg  10.0353 -3.81434 -1.55017
RightFoot  -3.69939 -0.693982 9.9882
RightToes  -1.33073e-015 0 -3.6325e-017
Spine  7.85346 5.59013 8.63917
Spine1  4.46165 3.07324 14.4118
HEad  -10.331 54.0554 -26.9443
LeftShoulder1  0.248259 1.71525 -6.13207
LeftArm  8.27437 38.1662 -10.8015
LeftForeArm  -2.65327 -72.9713 -43.9082
LeftHand  -2.20262 18.3897 -17.8386
RightShoulder  5.46386 10.5959 32.8372
RightArm  -35.8726 12.8104 -9.63009
RightForeArm  24.3625 13.8094 6.31745
RightHand  -0.668732 2.00656 -10.6636
LeftUpLeg  -7.26195 5.54347 0.388
LeftLeg  8.23242 -1.68632 -1.3306
LeftFoot  -2.39806 0.47471 -5.88396
LeftToes  -2.73175e-012 1.00346e-010 -4.28452e-011
107
root  42.1489 39.8545 9.12951 -174.751 -42.1067 174.043
RightUpLeg  -7.04695 -11.1171 -12.6636
RightLeg  10.6615 -3.9098 -1.77049
RightFoot  -3.84979 -0.685358 10.042
RightToes  -1.33073e-015 0 -3.6325e-017
Spine  8.53118 6.02204 10.2566
Spine1  3.82487 3.81683 14.1634
HEad  -8.54021 53.6418 -25.8695
LeftShoulder1  0.153374 2.25144 -4.29038
LeftArm  7.43346 34.3896 -7.87688
LeftForeArm  -9.53639 -69.972 -35.6245
LeftHand  -2.01984 16.805 -18.6379
RightShoulder  5.6781 11.1995 32.6979
RightArm  -33.6711 12.1576 -9.45575
RightForeArm  23.94 13.9247 6.55442
RightHand  -0.669208 2.03068 -10.6382
LeftUpLeg  -7.35778 5.38722 -0.184364
LeftLeg  8.1394 -1.92693 -1.44186
LeftFoot  -2.1857 0.472994 -5.74162
LeftToes  -2.73175e-012 1.00346e-010 -4.28452e-011
108
root  42.1994 39.844 9.15135 -174.379 -42.8281 173.454
RightUpLeg  -7.12458 -11.4632 -13.1012
RightLeg  11.1963 -4.22123 -1.87779
RightFoot  -4.03749 -0.667523 10.0022
RightToes  -1.33073e-015 0 -3.6325e-017
Spine  9.19613 6.31118 11.4853
Spine1  2.98811 4.4507 13.7499
HEad  -6.71792 52.5601 -24.5525
LeftShoulder1  0.114857 2.463 -2.92178
LeftArm  5.92371 29.0661 -5.04858
LeftForeArm  -16.3188 -64.0957 -25.9261
LeftHand  -1.67925 13.8985 -20.7548
RightShoulder  5.99224 11.8468 33.1099
RightArm  -32.3927 11.5541 -9.304
RightForeArm  24.7597 13.6464 6.74286
RightHand  -0.681462 2.28141 -10.4933
LeftUpLeg  -7.32749 5.19537 -0.554978
LeftLeg  7.83122 -2.3565 -1.60395
LeftFoot  -1.8742 0.486375 -5.73603
LeftToes  -2.73175e-012 1.00346e-010 -4.28452e-011
109
root  42.2947 39.8466 9.12369 -174.154 -43.8372 172.991
RightUpLeg  -6.94548 -11.7761 -13.3825
RightLeg  11.61 -4.87884 -1.93945
RightFoot  -4.22304 -0.643509 9.85889
RightToes  -1.33073e-015 0 -3.6325e-017
Spine  9.71857 6.46991 12.012
Spine1  2.1492 4.83881 13.549
HEad  -5.92076 51.1146 -23.726
LeftShoulder1  0.100593 2.50743 -1.85829
LeftArm  3.79596 22.56 -2.59971
LeftForeArm  -21.7782 -56.3674 -18.8024
LeftHand  -1.13912 10.654 -22.4637
RightShoulder  6.34772 12.4564 33.8375
RightArm  -31.6673 11.21 -9.09069
RightForeArm  25.3677 12.873 7.0711
RightHand  -0.704577 2.16891 -10.9939
LeftUpLeg  -7.13476 4.83337 -0.693573
LeftLeg  7.32274 -2.94714 -1.74918
LeftFoot  -1.47358 0.5124 -5.83124
LeftToes  -2.73175e-012 1.00346e-010 -4.28452e-011
110
root  42.4232 39.8594 9.04208 -174.072 -44.9982 172.816
RightUpLeg  -6.66042 -11.9452 -13.3788
RightLeg  11.8871 -5.78921 -1.93203
RightFoot  -4.38761 -0.619567 9.68208
RightToes  -1.33073e-015 0 -3.6325e-017
Spine  10.0817 6.55241 11.9458
Spine1  1.27868 5.05962 13.4519
HEad  -5.81457 49.2765 -22.6514
LeftShoulder1  0.0908135 2.55838 -1.30253
LeftArm  -0.243306 15.627 -0.461486
LeftForeArm  -23.4193 -48.336 -14.1076
LeftHand  -0.377193 6.89441 -23.4274
RightShoulder  6.75134 12.9956 34.9669
RightArm  -30.9142 10.8526 -8.89653
RightForeArm  25.9166 12.1983 7.38587
RightHand  -0.677308 2.4198 -10.256
LeftUpLeg  -6.95317 4.40098 -0.538508
LeftLeg  6.75791 -3.66213 -1.81449
LeftFoot  -1.06065 0.554069 -6.08614
LeftToes  -2.73175e-012 1.00346e-010 -4.28452e-011
111
root  42.5799 39.8741 8.91571 -174.169 -46.2168 173.004
RightUpLeg  -6.35105 -11.9846 -13.0062
RightLeg  12.0137 -6.99292 -1.89137
RightFoot  -4.54797 -0.58613 9.33222
RightToes  -1.33073e-015 0 -3.6325e-017
Spine  10.2425 6.59553 11.7704
Spine1  0.382923 5.27488 13.0038
HEad  -5.83283 47.1091 -21.1195
LeftShoulder1  0.086767 2.57027 -0.949614
LeftArm  -5.79375 8.05196 1.59624
LeftForeArm  -23.1033 -40.882 -10.9865
LeftHand  0.155421 4.38984 -22.987
RightShoulder  7.22107 13.5278 36.4126
RightArm  -30.3047 10.1536 -8.63722
RightForeArm  26.3755 11.5074 7.64476
RightHand  -0.679473 2.44451 -10.2573
LeftUpLeg  -6.95862 4.21837 -0.0618803
LeftLeg  6.40386 -4.70267 -1.8397
LeftFoot  -0.758318 0.593233 -6.35323
LeftToes  -2.73175e-012 1.00346e-010 -4.28452e-011
112
root  42.755 39.8856 8.76289 -174.469 -47.4944 173.427
RightUpLeg  -5.89926 -12.0288 -12.4772
RightLeg  11.9712 -8.20387 -1.71359
RightFoot  -4.74073 -0.553724 9.02313
RightToes  -1.33073e-015 0 -3.6325e-017
Spine  10.1578 6.50941 11.2956
Spine1  -0.176474 5.28057 12.5125
HEad  -5.67952 44.9474 -19.4659
LeftShoulder1  0.0979761 2.44297 -0.883447
LeftArm  -13.3646 0.886875 3.63873
LeftForeArm  -21.2042 -33.892 -8.65171
LeftHand  0.66682 1.77222 -21.8458
RightShoulder  7.58843 13.757 37.9294
RightArm  -29.7913 9.84263 -8.15142
RightForeArm  26.697 10.851 7.89504
RightHand  -0.684571 2.32005 -10.4901
LeftUpLeg  -7.06046 4.04247 0.558756
LeftLeg  6.24989 -5.80617 -1.73245
LeftFoot  -0.549067 0.641209 -6.74963
LeftToes  -2.73175e-012 1.00346e-010 -4.28452e-011
113
root  42.9383 39.8971 8.58281 -174.899 -48.7582 174.077
RightUpLeg  -5.39554 -12.0075 -11.7985
RightLeg  11.7261 -9.58462 -1.39302
RightFoot  -4.91568 -0.523844 8.71807
RightToes  -1.33073e-015 0 -3.6325e-017
Spine  9.77867 6.23037 10.6055
Spine1  -0.449412 5.04209 11.8732
HEad  -5.51448 43.0717 -17.5212
LeftShoulder1  0.122824 2.25204 -1.53771
LeftArm  -24.3364 -5.59625 6.20649
LeftForeArm  -17.6333 -28.4776 -7.03774
LeftHand  0.965809 -0.11887 -20.2848
RightShoulder  8.01746 14.0258 39.6275
RightArm  -29.215 9.55379 -7.51105
RightForeArm  26.6726 10.6795 8.02558
RightHand  -0.671818 2.42165 -10.1725
LeftUpLeg  -7.28805 3.81556 1.29621
LeftLeg  6.2237 -6.8613 -1.51132
LeftFoot  -0.400174 0.691376 -7.1892
LeftToes  -2.73175e-012 1.00346e-010 -4.28452e-011
114
root  43.128 39.9062 8.38371 -175.379 -49.8213 174.839
RightUpLeg  -4.99124 -11.8155 -10.9986
RightLeg  11.4231 -10.8471 -1.04614
RightFoot  -5.04897 -0.487517 8.22867
RightToes  -1.33073e-015 0 -3.6325e-017
Spine  9.31823 5.73903 9.67234
Spine1  -0.624639 4.60914 10.9384
HEad  -5.48898 41.9034 -15.351
LeftShoulder1  0.158674 2.01803 -2.52122
LeftArm  -38.1485 -11.371 9.14576
LeftForeArm  -13.1196 -25.191 -6.04024
LeftHand  0.886872 -0.522344 -17.3403
RightShoulder  8.48428 14.3282 41.3674
RightArm  -28.6887 9.34829 -6.38108
RightForeArm  26.4333 10.7552 8.06865
RightHand  -0.673628 2.43675 -10.1807
LeftUpLeg  -7.56368 3.78278 2.14415
LeftLeg  6.25083 -7.94697 -1.36886
LeftFoot  -0.288149 0.724994 -7.46942
LeftToes  -2.73175e-012 1.00346e-010 -4.28452e-011
115
root  43.3179 39.915 8.17444 -176.003 -50.4371 175.712
RightUpLeg  -4.71052 -11.4239 -10.0694
RightLeg  11.1629 -11.8892 -0.779506
RightFoot  -5.1541 -0.459448 7.77589
RightToes  -1.33073e-015 0 -3.6325e-017
Spine  8.93604 5.16418 8.6145
Spine1  -0.763888 4.13586 9.77023
HEad  -5.34475 41.25 -13.5847
LeftShoulder1  0.217334 1.71417 -4.17754
LeftArm  -51.9658 -16.379 12.9563
LeftForeArm  -7.16119 -24.5333 -5.60572
LeftHand  0.679244 -0.298823 -13.8643
RightShoulder  9.16301 14.9152 43.3822
RightArm  -28.1772 9.02531 -5.52781
RightForeArm  25.9724 10.8657 8.11113
RightHand  -0.682777 2.4952 -10.2434
LeftUpLeg  -7.7018 3.99657 3.10569
LeftLeg  6.20493 -8.8103 -1.27488
LeftFoot  -0.223816 0.7718 -7.9093
LeftToes  -2.73175e-012 1.00346e-010 -4.28452e-011
